<svg
    xmlns="http://www.w3.org/2000/svg"
    viewBox="0 0 300 900"
    fill="none"
>

    <path
        d="M80 0
           C220 80 220 170 80 250
           C-60 330 -60 420 80 500
           C220 580 220 670 80 750
           C-60 830 -60 900 80 900"
        stroke="#08B5D3"
        stroke-width="6"
        stroke-linecap="round"
    />

    <path
        d="M220 0
           C80 80 80 170 220 250
           C360 330 360 420 220 500
           C80 580 80 670 220 750
           C360 830 360 900 220 900"
        stroke="#24C45F"
        stroke-width="6"
        stroke-linecap="round"
    />

    <g stroke="#9CA3AF" stroke-width="2">

        <line x1="102" y1="35" x2="198" y2="35"/>
        <line x1="122" y1="90" x2="178" y2="90"/>
        <line x1="155" y1="145" x2="145" y2="145"/>
        <line x1="178" y1="200" x2="122" y2="200"/>
        <line x1="198" y1="255" x2="102" y2="255"/>

        <line x1="198" y1="325" x2="102" y2="325"/>
        <line x1="178" y1="380" x2="122" y2="380"/>
        <line x1="145" y1="435" x2="155" y2="435"/>
        <line x1="122" y1="490" x2="178" y2="490"/>
        <line x1="102" y1="545" x2="198" y2="545"/>

        <line x1="102" y1="615" x2="198" y2="615"/>
        <line x1="122" y1="670" x2="178" y2="670"/>
        <line x1="155" y1="725" x2="145" y2="725"/>
        <line x1="178" y1="780" x2="122" y2="780"/>
        <line x1="198" y1="845" x2="102" y2="845"/>

    </g>

</svg>